# xmcd
#
# Track frame offsets:
#	150
#	28184
#	52004
#	74516
#	92133
#	116909
#	139629
#	151877
#	166962
#	190737
#	216089
#	239527
#	263291
#	289597
#	302921
#
# Disc length: 4288 seconds
#
# Revision: 1
# Processed by: cddbd v1.5.2PL0 Copyright (c) Steve Scherf et al.
# Submitted via: audiograbber 1.83.01
#
DISCID=d810be0f
DTITLE=Various Artist - Dance Hits 2 CD 4
DYEAR=1900
DGENRE=
TTITLE0=Dajae - Brighter Days
TTITLE1=Haji and Emanuel - Take Me Away
TTITLE2=Tfunk Feat, Inayaday - Glamorous Life
TTITLE3=Jaydee - Plastic Dreams
TTITLE4=M Gee feat Mica Paris - Bodyswerve
TTITLE5=The Sax Brothers - Careless Whisper
TTITLE6=Starkillers - Discoteka
TTITLE7=Rob Hawk and My Soul feat Leanne - So Shok'in
TTITLE8=Matt Darey pres Ukwan - Point Zero
TTITLE9=Legsoup - Wonderland
TTITLE10=Lost Tribe - Gamemaster
TTITLE11=KenDoh - Kakasaki (I Need A Lover Tonight)
TTITLE12=Xtasia - Sweetness
TTITLE13=Cornell feat Ann Bailey - A Deeper Love
TTITLE14=W O S P - Getting In 2 U
EXTD=
EXTT0=
EXTT1=
EXTT2=
EXTT3=
EXTT4=
EXTT5=
EXTT6=
EXTT7=
EXTT8=
EXTT9=
EXTT10=
EXTT11=
EXTT12=
EXTT13=
EXTT14=
PLAYORDER=
